<svg width="32" height="32" viewBox="0 0 32 32" fill="none" xmlns="http://www.w3.org/2000/svg">
<g clip-path="url(#clip0_0_106)">
<path d="M6.34838 32H25.6516C26.8003 32 27.7565 31.1215 27.7565 30.0419V6.62855C27.7565 5.54866 26.8003 4.66089 25.6516 4.66089H22.4696V6.44866C22.4742 6.75899 22.2294 7.01578 21.9193 7.02611H10.0429C9.72664 7.0185 9.47121 6.76496 9.46088 6.44866V4.66089H6.34838C5.19974 4.66089 4.24349 5.54866 4.24349 6.62855V30.0419C4.24349 31.1215 5.19974 32 6.34838 32ZM10.6435 14.0522C10.6435 13.7449 10.8927 13.4957 11.2 13.4957H14.0522V10.6435C14.0522 10.3362 14.3014 10.087 14.6087 10.087H17.3913C17.6987 10.087 17.9478 10.3362 17.9478 10.6435V13.4957H20.8C21.1073 13.4957 21.3565 13.7449 21.3565 14.0522V16.8348C21.3565 17.1421 21.1073 17.3913 20.8 17.3913H17.9478V20.2435C17.9478 20.5508 17.6987 20.8 17.3913 20.8H14.6087C14.3014 20.8 14.0522 20.5508 14.0522 20.2435V17.3913H11.2C10.8927 17.3913 10.6435 17.1421 10.6435 16.8348V14.0522ZM10.8701 23.6522H21.1299C21.4375 23.6522 21.6864 23.9014 21.6864 24.2087C21.6864 24.5161 21.4375 24.7652 21.1299 24.7652H10.8701C10.5625 24.7652 10.3136 24.5161 10.3136 24.2087C10.3136 23.9014 10.5625 23.6522 10.8701 23.6522ZM8.78317 26.4348H23.2169C23.5245 26.4348 23.7734 26.684 23.7734 26.9913C23.7734 27.2987 23.5245 27.5478 23.2169 27.5478H8.78317C8.47556 27.5478 8.22664 27.2987 8.22664 26.9913C8.22664 26.684 8.47556 26.4348 8.78317 26.4348Z" fill="white"/>
<path d="M21.3565 2.15652H18.7522C18.4902 2.15625 18.2636 1.97337 18.2084 1.71712C17.9932 0.722556 17.0486 1.23676e-06 15.9622 1.23676e-06H15.9554C14.8981 -0.00108572 13.9745 0.714403 13.7114 1.73832C13.6481 1.98424 13.4264 2.15625 13.1723 2.15652H10.5739V5.91304H21.3565V2.15652Z" fill="white"/>
<path d="M15.1652 16.8347V19.6869H16.8348V16.8347C16.8348 16.5274 17.084 16.2782 17.3913 16.2782H20.2435V14.6086H17.3913C17.084 14.6086 16.8348 14.3595 16.8348 14.0521V11.2H15.1652V14.0521C15.1652 14.3595 14.916 14.6086 14.6087 14.6086H11.7565V16.2782H14.6087C14.916 16.2782 15.1652 16.5274 15.1652 16.8347Z" fill="white"/>
</g>
<defs>
<clipPath id="clip0_0_106">
<rect width="32" height="32" fill="white"/>
</clipPath>
</defs>
</svg>
