<svg width="32" height="32" viewBox="0 0 32 32" fill="none" xmlns="http://www.w3.org/2000/svg">
<g clip-path="url(#clip0_0_116)">
<g clip-path="url(#clip1_0_116)">
<g clip-path="url(#clip2_0_116)">
<g clip-path="url(#clip3_0_116)">
<path d="M10.6705 16.3349C11.0645 16.2533 11.4761 16.0745 11.8645 15.7942C12.981 14.9865 13.4766 13.6603 12.9702 12.8305C12.4196 11.9279 10.9135 11.9886 9.75604 13.0158C8.64925 13.9714 8.41312 14.9699 8.41312 16.0194C8.41312 16.7609 8.65028 18.0849 10.0991 19.2347C10.7831 18.7062 11.5986 18.2714 12.5243 17.957L12.5366 17.9525C11.8253 17.6561 10.8981 17.0711 10.6705 16.3349ZM10.4919 13.7827C10.4919 13.4726 10.7389 13.2233 11.0436 13.2233C11.348 13.2233 11.5953 13.4738 11.5953 13.7838C11.5953 14.0939 11.348 14.3432 11.0436 14.3432C10.739 14.3432 10.4919 14.0927 10.4919 13.7827Z" fill="white"/>
</g>
</g>
<g clip-path="url(#clip4_0_116)">
<g clip-path="url(#clip5_0_116)">
<path d="M23.607 16.0203C23.6037 14.9698 23.3687 13.9713 22.2609 13.0157C21.1044 11.9895 19.5972 11.9266 19.0465 12.8304C18.5412 13.6601 19.0355 14.9864 20.1521 15.7941C20.5406 16.0744 20.9522 16.2531 21.346 16.3347C21.2092 16.7772 20.7932 17.2274 20.1588 17.607C19.2865 18.1276 18.8152 18.192 13.2337 20.0455C11.1682 20.7473 9.93903 22.1419 9.93903 23.7761C9.93903 24.9402 10.5337 25.8384 11.3601 26.4961C11.8799 25.9609 12.5287 25.4964 13.2868 25.1245C12.414 24.6832 12.1447 24.3488 12.1447 23.7761C12.1447 22.8309 14.034 22.2905 14.9056 22.003V24.3952L17.1124 23.4109V22.0041C17.9853 22.2932 19.8698 22.8329 19.8698 23.7761C19.8698 25.3454 15.3763 26.2708 13.4644 27.5895C12.5365 28.2328 12.0376 29.0505 12.0376 30.0115C12.0376 30.5632 12.1017 31.2474 13.0704 31.9271C13.3451 32.1465 13.7268 31.826 13.5484 31.5176C12.9082 30.2366 13.5879 29.5966 14.9077 29.0427V30.8942C14.9077 31.5033 15.402 31.9976 16.0111 31.9976C16.6202 31.9976 17.1145 31.5033 17.1145 30.8942V29.0438C18.3823 29.5756 19.1802 30.327 18.4706 31.5176C18.2948 31.82 18.6692 32.1492 18.9473 31.9271C19.8852 31.2164 19.9591 30.6073 19.9591 30.0259C19.9591 29.1311 19.4693 28.2627 18.5401 27.5973C20.4182 26.9187 22.0799 25.7766 22.0799 23.7783C22.0799 22.398 21.2028 21.1886 19.6867 20.4229C20.3949 20.168 20.7513 19.997 21.2247 19.7145C23.2981 18.4753 23.607 16.8677 23.607 16.0203ZM20.9743 14.3431C20.6697 14.3431 20.4226 14.0926 20.4226 13.7825C20.4226 13.4725 20.6697 13.222 20.9743 13.222C21.2787 13.222 21.526 13.4725 21.526 13.7825C21.526 14.0926 21.2788 14.3431 20.9743 14.3431Z" fill="white"/>
</g>
</g>
<g clip-path="url(#clip6_0_116)">
<g clip-path="url(#clip7_0_116)">
<path d="M31.4476 2.20896H23.8909C22.4085 2.20896 21.2961 2.86425 20.3391 3.82132C19.2994 4.86101 18.7588 7.17218 17.1033 7.17218V4.10759C17.7602 3.72533 18.2067 3.0217 18.2067 2.20683C18.2067 0.988037 17.2187 0 15.9999 0C14.781 0 13.7931 0.988037 13.7931 2.20683C13.7931 3.02163 14.2395 3.72526 14.8965 4.10759V17.2579C15.5775 17.0406 16.3249 16.8012 17.1033 16.5513V11.0242C17.582 10.784 17.9683 10.3957 18.2052 9.91506C18.589 10.571 19.3186 11.0363 20.1319 11.0363C20.9568 11.0363 21.6674 10.5783 22.046 9.90802C23.3387 11.2007 25.7414 11.2256 27.034 9.93299L25.1589 8.05788L26.0191 8.41421C27.7081 9.11384 29.6445 8.31173 30.3442 6.62268L27.6804 5.51927C30.261 5.5192 31.4476 3.89987 31.4476 2.20896Z" fill="white"/>
</g>
</g>
<g clip-path="url(#clip8_0_116)">
<g clip-path="url(#clip9_0_116)">
<path d="M11.6607 3.82135C10.7037 2.86427 9.59126 2.20898 8.10883 2.20898H0.552109C0.552109 3.89983 1.73876 5.51922 4.31937 5.51922L1.65552 6.62263C2.35522 8.31168 4.29164 9.11373 5.98069 8.41416L6.84087 8.05783L4.96576 9.93294C6.25841 11.2257 8.66109 11.2008 9.95374 9.90798C10.3323 10.5783 11.043 11.0363 11.8679 11.0363C11.876 11.0363 11.8842 11.0362 11.8923 11.0361C12.9705 11.0239 13.7946 10.05 13.7946 8.9718V6.75187C12.9249 6.03831 12.4268 4.58739 11.6607 3.82135Z" fill="white"/>
</g>
</g>
</g>
</g>
<defs>
<clipPath id="clip0_0_116">
<rect width="32" height="32" fill="white"/>
</clipPath>
<clipPath id="clip1_0_116">
<rect width="32" height="32" fill="white"/>
</clipPath>
<clipPath id="clip2_0_116">
<rect width="4.75568" height="7.03818" fill="white" transform="translate(8.41312 12.1965)"/>
</clipPath>
<clipPath id="clip3_0_116">
<rect width="4.75568" height="7.03818" fill="white" transform="translate(8.41312 12.1965)"/>
</clipPath>
<clipPath id="clip4_0_116">
<rect width="13.668" height="19.8036" fill="white" transform="translate(9.93903 12.1963)"/>
</clipPath>
<clipPath id="clip5_0_116">
<rect width="13.668" height="19.8036" fill="white" transform="translate(9.93903 12.1963)"/>
</clipPath>
<clipPath id="clip6_0_116">
<rect width="17.6546" height="17.2579" fill="white" transform="translate(13.7931)"/>
</clipPath>
<clipPath id="clip7_0_116">
<rect width="17.6546" height="17.2579" fill="white" transform="translate(13.7931)"/>
</clipPath>
<clipPath id="clip8_0_116">
<rect width="13.2425" height="8.8273" fill="white" transform="translate(0.552109 2.20898)"/>
</clipPath>
<clipPath id="clip9_0_116">
<rect width="13.2425" height="8.8273" fill="white" transform="translate(0.552109 2.20898)"/>
</clipPath>
</defs>
</svg>
